<svg width="39" height="40" viewBox="0 0 39 40" fill="none" xmlns="http://www.w3.org/2000/svg">
<path fill-rule="evenodd" clip-rule="evenodd" d="M-0.00390625 19.7305C-0.00390625 30.5 8.72654 39.2305 19.4961 39.2305C30.2656 39.2305 38.9961 30.5 38.9961 19.7305C38.9961 8.96092 30.2656 0.230469 19.4961 0.230469C8.72654 0.230469 -0.00390625 8.96092 -0.00390625 19.7305Z" fill="#FEC43C"/>
<path fill-rule="evenodd" clip-rule="evenodd" d="M38.9961 15.9215C37.1446 6.95519 29.2264 0.230469 19.6931 0.230469C8.82034 0.230469 -0.00390625 9.03946 -0.00390625 19.8934C-0.00390625 24.6518 1.69003 28.9777 4.487 32.3597C7.83549 34.208 11.6567 35.2305 15.7537 35.2305C27.3355 35.2305 36.9476 26.8934 38.9961 15.9215Z" fill="#FFD73A"/>
<path fill-rule="evenodd" clip-rule="evenodd" d="M18.9961 29.2305C13.9646 29.2305 9.77816 25.5766 9.00999 20.7689C8.89477 19.9612 9.5093 19.2305 10.3543 19.2305H27.6379C28.4829 19.2305 29.0974 19.9612 28.9822 20.7689C28.214 25.5766 24.0276 29.2305 18.9961 29.2305Z" fill="#873A18"/>
<path fill-rule="evenodd" clip-rule="evenodd" d="M27.6657 19.2305H10.3563C9.51006 19.2305 8.89462 19.8534 9.01002 20.5419C9.04848 20.7715 9.08695 21.001 9.16388 21.2305H28.8197C28.8966 21.001 28.935 20.7715 28.9735 20.5419C29.1274 19.8534 28.4735 19.2305 27.6657 19.2305Z" fill="white"/>
<path fill-rule="evenodd" clip-rule="evenodd" d="M22.429 24.2305C21.24 24.2305 20.1699 24.77 19.4961 25.5974C18.8619 24.77 17.7918 24.2305 16.5632 24.2305C14.7004 24.2305 13.1546 25.5254 12.9961 27.1801C14.7796 28.4751 17.0388 29.2305 19.4961 29.2305C21.9534 29.2305 24.2126 28.4751 25.9961 27.1801C25.8376 25.5254 24.2918 24.2305 22.429 24.2305Z" fill="#F44444"/>
<path fill-rule="evenodd" clip-rule="evenodd" d="M12.4961 15.5162C12.4961 15.909 12.8336 16.2305 13.2461 16.2305C13.6586 16.2305 13.9961 15.909 13.9961 15.5162C13.9961 13.159 11.9711 11.2305 9.49609 11.2305C7.02109 11.2305 4.99609 13.159 4.99609 15.5162C4.99609 15.909 5.33359 16.2305 5.74609 16.2305C6.15859 16.2305 6.49609 15.909 6.49609 15.5162C6.49609 13.9448 7.84609 12.659 9.49609 12.659C11.1461 12.659 12.4961 13.9448 12.4961 15.5162ZM31.4961 15.5162C31.4961 15.909 31.8336 16.2305 32.2461 16.2305C32.6586 16.2305 32.9961 15.909 32.9961 15.5162C32.9961 13.159 30.9711 11.2305 28.4961 11.2305C26.0211 11.2305 23.9961 13.159 23.9961 15.5162C23.9961 15.909 24.3336 16.2305 24.7461 16.2305C25.1586 16.2305 25.4961 15.909 25.4961 15.5162C25.4961 13.9448 26.8461 12.659 28.4961 12.659C30.1461 12.659 31.4961 13.9448 31.4961 15.5162Z" fill="#873A18"/>
<path fill-rule="evenodd" clip-rule="evenodd" d="M3.99609 12.2305C1.79609 12.2305 -0.00390625 10.543 -0.00390625 8.48047C-0.00390625 5.10547 3.99609 0.230469 3.99609 0.230469C3.99609 0.230469 7.99609 5.10547 7.99609 8.48047C7.99609 10.543 6.19609 12.2305 3.99609 12.2305Z" fill="#61A3E0"/>
</svg>
