<svg width="16" height="16" viewBox="0 0 16 16" fill="none" xmlns="http://www.w3.org/2000/svg">
<g clip-path="url(#clip0_15122_80072)">
<path d="M2.26976 12.2064C2.07626 11.8779 1.94951 11.6576 1.88651 11.54C1.30284 10.4515 0.998244 9.23515 1.00001 8C1.00001 3.85794 4.35794 0.5 8.50001 0.5C12.6421 0.5 16 3.85794 16 8C16 12.1421 12.6421 15.5 8.50001 15.5C7.14329 15.502 5.81167 15.1344 4.6482 14.4365C4.53098 14.3671 4.41348 14.2981 4.29569 14.2297L2.46045 14.7303C2.04045 14.8447 1.65532 14.4594 1.76988 14.0396L2.26976 12.2064ZM3.41763 12.2729L3.11426 13.3858L4.22707 13.0824C4.29907 13.0627 4.37427 13.0576 4.44827 13.0673C4.52228 13.077 4.59362 13.1013 4.65813 13.1388C4.84816 13.249 5.03772 13.36 5.22682 13.4718C6.21551 14.0648 7.34713 14.377 8.50001 14.375C12.0209 14.375 14.875 11.5209 14.875 8C14.875 4.47913 12.0209 1.625 8.50001 1.625C4.97913 1.625 2.12501 4.47913 2.12501 8C2.12501 9.065 2.38601 10.091 2.87782 11.0083C2.94307 11.1298 3.10507 11.4095 3.35895 11.8385C3.39731 11.9033 3.42227 11.9751 3.43235 12.0498C3.44243 12.1244 3.43743 12.2003 3.41763 12.2729ZM5.98394 11.0289C5.92613 10.982 5.8782 10.9241 5.84293 10.8585C5.80766 10.7929 5.78576 10.721 5.77849 10.6469C5.77122 10.5729 5.77873 10.4981 5.80059 10.4269C5.82244 10.3557 5.85821 10.2896 5.9058 10.2324C5.9534 10.1751 6.01189 10.1279 6.07788 10.0934C6.14386 10.059 6.21603 10.038 6.2902 10.0316C6.36438 10.0252 6.43907 10.0336 6.50997 10.0564C6.58086 10.0791 6.64654 10.1156 6.7032 10.1639C7.20751 10.5842 7.84354 10.8138 8.50001 10.8125C9.16601 10.8125 9.79507 10.5809 10.2963 10.1641C10.3531 10.1169 10.4186 10.0813 10.4892 10.0594C10.5597 10.0375 10.6339 10.0298 10.7075 10.0365C10.781 10.0433 10.8525 10.0645 10.9179 10.0989C10.9833 10.1333 11.0412 10.1803 11.0884 10.2371C11.1357 10.2939 11.1712 10.3594 11.1931 10.43C11.215 10.5005 11.2228 10.5747 11.216 10.6483C11.2093 10.7218 11.1881 10.7933 11.1537 10.8587C11.1193 10.9241 11.0723 10.982 11.0155 11.0293C10.3093 11.6173 9.41901 11.9387 8.50001 11.9375C7.58077 11.9388 6.69028 11.6172 5.98394 11.0289Z" fill="#18CE92"/>
</g>
<defs>
<clipPath id="clip0_15122_80072">
<rect width="16" height="16" fill="white"/>
</clipPath>
</defs>
</svg>
