<svg width="11" height="11" viewBox="0 0 11 11" fill="none" xmlns="http://www.w3.org/2000/svg">
<path d="M3 5L3 10" stroke="#8F9195" stroke-width="0.825" stroke-linecap="round" stroke-linejoin="round"/>
<path d="M6.90015 2.746L6.44629 4.6H9.09228C9.2332 4.6 9.37219 4.63253 9.49823 4.69502C9.62427 4.7575 9.73391 4.84822 9.81846 4.96C9.90301 5.07178 9.96015 5.20154 9.98536 5.339C10.0106 5.47647 10.0031 5.61787 9.96369 5.752L8.9062 9.352C8.85121 9.53894 8.73655 9.70316 8.57943 9.82C8.4223 9.93684 8.2312 10 8.0348 10H1.90772C1.66697 10 1.43609 9.90518 1.26586 9.7364C1.09563 9.56761 1 9.33869 1 9.1V5.5C1 5.26131 1.09563 5.03239 1.26586 4.8636C1.43609 4.69482 1.66697 4.6 1.90772 4.6H3.16036C3.32924 4.59991 3.49474 4.55312 3.63826 4.46487C3.78177 4.37663 3.89762 4.25045 3.97277 4.1005L5.53858 1C5.75261 1.00263 5.96327 1.05318 6.15483 1.14787C6.34639 1.24256 6.51389 1.37895 6.64481 1.54684C6.77574 1.71473 6.86671 1.90979 6.91092 2.11744C6.95514 2.32509 6.95146 2.53996 6.90015 2.746Z" stroke="#8F9195" stroke-width="0.825" stroke-linecap="round" stroke-linejoin="round"/>
</svg>
